<svg xmlns="http://www.w3.org/2000/svg" width="48" height="48" viewBox="0 0 48 48">
  <g id="Miscellaneous" transform="translate(3698 -16978)">
    <rect id="Rectangle_3046" data-name="Rectangle 3046" width="48" height="48" rx="4" transform="translate(-3698 16978)" fill="#fff" opacity="0.24"/>
    <path id="Path_5096" data-name="Path 5096" d="M27406.631,7744.6v4.59a2.78,2.78,0,0,0,2.781,2.778h16.5a2.78,2.78,0,0,0,2.781-2.778v-17.073a2.779,2.779,0,0,0-2.781-2.777h-4.574v-4.592a2.781,2.781,0,0,0-2.777-2.779h-16.527a2.781,2.781,0,0,0-2.777,2.779v17.075a2.778,2.778,0,0,0,2.777,2.778Zm14.707-11.6v8.817a2.778,2.778,0,0,1-2.777,2.778h-8.266v3.078a.651.651,0,0,0,.191.441.579.579,0,0,0,.438.182h13.484a.654.654,0,0,0,.453-.182.612.612,0,0,0,.168-.441v-14.05a.612.612,0,0,0-.168-.441.654.654,0,0,0-.453-.182Zm-3.664-3.666v-3.079a.6.6,0,0,0-.2-.44.59.59,0,0,0-.426-.182h-13.508a.617.617,0,0,0-.437.182.63.63,0,0,0-.191.44v14.051a.638.638,0,0,0,.629.623h3.086v-8.817a2.779,2.779,0,0,1,2.781-2.777Zm0,3.666h-6.75a.579.579,0,0,0-.437.182.651.651,0,0,0-.191.441v7.305h6.758a.646.646,0,0,0,.621-.623Z" transform="translate(-31088.256 9265.029)" fill="#fff" fill-rule="evenodd"/>
  </g>
</svg>
