<svg xmlns="http://www.w3.org/2000/svg" width="48" height="48" viewBox="0 0 48 48">
  <g id="gate" transform="translate(3561 -16799)">
    <rect id="Rectangle_3046" data-name="Rectangle 3046" width="48" height="48" rx="4" transform="translate(-3561 16799)" fill="#fff" opacity="0.24"/>
    <path id="Path_5098" data-name="Path 5098" d="M26355.914,7283.289a2.4,2.4,0,0,0-2.406-2.4h-24.82a2.4,2.4,0,0,0-2.41,2.4v26.948a2.406,2.406,0,0,0,2.41,2.4h24.82a2.4,2.4,0,0,0,2.406-2.4Zm-3.121,1.255a.53.53,0,0,0-.164-.374.507.507,0,0,0-.367-.153h-22.332a.513.513,0,0,0-.367.153.53.53,0,0,0-.164.374v24.437a.534.534,0,0,0,.164.375.524.524,0,0,0,.367.155h22.332a.517.517,0,0,0,.367-.155.534.534,0,0,0,.164-.375Z" transform="translate(-29878.35 9526.047)" fill="#fff" fill-rule="evenodd"/>
    <path id="Path_5099" data-name="Path 5099" d="M3.126,1.563A1.556,1.556,0,0,0,1.563,0h0A1.565,1.565,0,0,0,0,1.563V12.832a1.565,1.565,0,0,0,1.563,1.562h0a1.555,1.555,0,0,0,1.563-1.562Z" transform="translate(-3545.919 16817.135) rotate(-90)" fill="#fff" fill-rule="evenodd"/>
    <path id="Path_5100" data-name="Path 5100" d="M3.126,1.563A1.543,1.543,0,0,0,2.672.458,1.567,1.567,0,0,0,1.563,0h0A1.53,1.53,0,0,0,.469.458,1.558,1.558,0,0,0,0,1.563V8.806A1.558,1.558,0,0,0,.469,9.911a1.53,1.53,0,0,0,1.094.457h0a1.567,1.567,0,0,0,1.11-.457,1.543,1.543,0,0,0,.453-1.105Z" transform="translate(-3545.919 16830.27) rotate(-90)" fill="#fff" fill-rule="evenodd"/>
    <path id="Path_5101" data-name="Path 5101" d="M3.126,1.563A1.555,1.555,0,0,0,1.563,0h0A1.565,1.565,0,0,0,0,1.563V4.1A1.565,1.565,0,0,0,1.563,5.665h0A1.555,1.555,0,0,0,3.126,4.1Z" transform="translate(-3545.919 16824.207) rotate(-90)" fill="#fff" fill-rule="evenodd"/>
  </g>
</svg>
