<svg xmlns="http://www.w3.org/2000/svg" width="48" height="48" viewBox="0 0 48 48">
  <g id="Group_7128" data-name="Group 7128" transform="translate(-2611 -12267)">
    <rect id="Rectangle_3046" data-name="Rectangle 3046" width="48" height="48" rx="4" transform="translate(2611 12267)" fill="#fff" opacity="0.24"/>
    <g id="Group_7129" data-name="Group 7129" transform="translate(-24575.455 4563.198)">
      <path id="Path_5103" data-name="Path 5103" d="M27209.367,7712.149a2.589,2.589,0,0,1,2.59,0c2.7,1.56,8.9,5.145,11.605,6.7a2.613,2.613,0,0,1,1.309,2.244v13.41a2.607,2.607,0,0,1-1.309,2.242c-2.7,1.562-8.9,5.147-11.605,6.706a2.589,2.589,0,0,1-2.59,0c-2.7-1.559-8.9-5.145-11.605-6.706a2.557,2.557,0,0,1-1.307-2.242V7721.1a2.562,2.562,0,0,1,1.307-2.244C27200.463,7717.294,27206.664,7713.709,27209.367,7712.149Zm2.988,27.131,8.816-5.083a.58.58,0,0,0,.287-.5v-11.794a.578.578,0,0,0-.287-.5c-1.551-.884-8.705-5.014-10.234-5.9a.565.565,0,0,0-.574,0c-1.529.881-8.684,5.012-10.211,5.9a.578.578,0,0,0-.287.5V7733.7a.58.58,0,0,0,.287.5l8.814,5.083v-6.635a5.128,5.128,0,1,1,3.389,0Z" fill="#fff"/>
    </g>
  </g>
</svg>
