<svg xmlns="http://www.w3.org/2000/svg" width="48" height="48" viewBox="0 0 48 48">
  <g id="Group_7134" data-name="Group 7134" transform="translate(-2769 -12447)">
    <rect id="Rectangle_3046" data-name="Rectangle 3046" width="48" height="48" rx="4" transform="translate(2769 12447)" fill="#fff" opacity="0.24"/>
    <g id="Group_7127" data-name="Group 7127" transform="translate(1207.244 11163.725)">
      <g id="Group_7091" data-name="Group 7091" transform="translate(1579.98 1292.275)">
        <path id="Path_5093" data-name="Path 5093" d="M1630.95,1294.352a1.572,1.572,0,0,0-1-2h0a1.582,1.582,0,0,0-2,1l-8.561,25.883a1.581,1.581,0,0,0,1,1.995h0a1.571,1.571,0,0,0,2-1Z" transform="translate(-1619.31 -1292.275)" fill="#fff"/>
      </g>
      <g id="Group_7092" data-name="Group 7092" transform="translate(1569.756 1299.362)">
        <path id="Path_5094" data-name="Path 5094" d="M26997.543,7330.229a2.352,2.352,0,0,1-.021-3.792c2.207-1.677,5.322-4.044,7.055-5.348a1.527,1.527,0,0,1,1.156-.3,1.563,1.563,0,0,1,1.031.621h0a1.578,1.578,0,0,1-.33,2.2l-5.674,4.166a.526.526,0,0,0,0,.865c1.2.883,3.963,2.913,5.611,4.128a1.631,1.631,0,0,1,.662,1.071,1.612,1.612,0,0,1-.311,1.217h0a1.52,1.52,0,0,1-2.125.33C27002.906,7334.141,26999.77,7331.854,26997.543,7330.229Zm20.795-8.752a1.7,1.7,0,0,1,1.094-.658,1.658,1.658,0,0,1,1.238.31c1.732,1.288,4.787,3.559,6.953,5.181a2.37,2.37,0,0,1,0,3.794c-2.166,1.62-5.221,3.885-6.953,5.177a1.659,1.659,0,0,1-2.332-.351v0a1.462,1.462,0,0,1,.311-2.063c1.629-1.2,4.518-3.317,5.756-4.223a.558.558,0,0,0,0-.865c-1.238-.905-4.105-3.012-5.756-4.215a1.511,1.511,0,0,1-.311-2.084Z" transform="translate(-26996.572 -7320.771)" fill="#fff"/>
      </g>
    </g>
  </g>
</svg>
