<svg xmlns="http://www.w3.org/2000/svg" width="48" height="48" viewBox="0 0 48 48">
  <g id="Group_7132" data-name="Group 7132" transform="translate(-2769 -12447)">
    <rect id="Rectangle_3046" data-name="Rectangle 3046" width="48" height="48" rx="4" transform="translate(2769 12447)" fill="#fff" opacity="0.24"/>
    <g id="Group_7123" data-name="Group 7123" transform="translate(-23772.957 4745.629)">
      <path id="Path_5097" data-name="Path 5097" d="M26549.957,7719.847v15.788a2.215,2.215,0,0,0,2.213,2.214h27.572a2.2,2.2,0,0,0,2.215-2.214v-15.788a2.2,2.2,0,0,0-2.215-2.213h-6.34v-3.05a2.215,2.215,0,0,0-2.213-2.213h-9.658a2.217,2.217,0,0,0-2.215,2.213v3.05h-7.146A2.215,2.215,0,0,0,26549.957,7719.847Zm29.129,9.306h-5.645v.265a1.424,1.424,0,0,1-1.426,1.437h0a1.475,1.475,0,0,1-1.031-.42,1.458,1.458,0,0,1-.414-1.017v-.265h-8.383v.265a1.458,1.458,0,0,1-.414,1.017,1.429,1.429,0,0,1-1.012.42h0a1.437,1.437,0,0,1-1.014-.42,1.4,1.4,0,0,1-.432-1.017v-.265h-6.471v5.336a.479.479,0,0,0,.486.488h25.268a.479.479,0,0,0,.486-.488Zm0-2.872v-5.288a.48.48,0,0,0-.486-.488h-25.268a.48.48,0,0,0-.486.488v5.288Zm-16.412-11.037a.491.491,0,0,0-.486.488v1.9h8.346v-1.9a.479.479,0,0,0-.488-.488Z" fill="#fff"/>
    </g>
  </g>
</svg>
