<svg xmlns="http://www.w3.org/2000/svg" width="48" height="48" viewBox="0 0 48 48">
  <g id="Programming_Languages" data-name="Programming Languages" transform="translate(3774 -17012)">
    <rect id="Rectangle_3046" data-name="Rectangle 3046" width="48" height="48" rx="4" transform="translate(-3774 17012)" fill="#fff" opacity="0.24"/>
    <path id="Path_5104" data-name="Path 5104" d="M27925.742,7319.162a2.179,2.179,0,0,0,2.176,2.176h27.648a2.176,2.176,0,0,0,2.176-2.176v-16.953a2.176,2.176,0,0,0-2.176-2.176h-27.648a2.18,2.18,0,0,0-2.176,2.176Zm29.113-9.851h-26.242v8.63a.517.517,0,0,0,.523.525h25.191a.519.519,0,0,0,.527-.525Zm0-2.872v-3.009a.521.521,0,0,0-.527-.525h-25.191a.519.519,0,0,0-.523.525v3.009Z" transform="translate(-31691.742 9724.967)" fill="#fff" fill-rule="evenodd"/>
    <ellipse id="Ellipse_513" data-name="Ellipse 513" cx="1.015" cy="1.015" rx="1.015" ry="1.015" transform="translate(-3761.705 17028.711)" fill="#fff"/>
    <ellipse id="Ellipse_514" data-name="Ellipse 514" cx="1.015" cy="1.015" rx="1.015" ry="1.015" transform="translate(-3757.648 17028.711)" fill="#fff"/>
    <ellipse id="Ellipse_515" data-name="Ellipse 515" cx="1.015" cy="1.015" rx="1.015" ry="1.015" transform="translate(-3753.584 17028.711)" fill="#fff"/>
  </g>
</svg>
